<svg xmlns="http://www.w3.org/2000/svg" xmlns:xlink="http://www.w3.org/1999/xlink" width="2000" zoomAndPan="magnify" viewBox="0 0 1500 1499.999933" height="2000" preserveAspectRatio="xMidYMid meet" version="1.0"><defs><g/><clipPath id="5a91638c8e"><rect x="0" width="1060" y="0" height="368"/></clipPath></defs><g transform="matrix(1, 0, 0, 1, 216, 566)"><g clip-path="url(#5a91638c8e)"><g fill="#602e17" fill-opacity="1"><g transform="translate(15.556933, 242.016923)"><g><path d="M 187.1875 32.859375 C 179.363281 32.859375 172.660156 29.726562 167.078125 23.46875 C 161.503906 17.207031 156.664062 9.191406 152.5625 -0.578125 C 148.457031 -10.359375 144.835938 -20.4375 141.703125 -30.8125 C 134.472656 -54.476562 131.441406 -68.554688 132.609375 -73.046875 C 121.066406 -57.597656 111.09375 -44.738281 102.6875 -34.46875 C 94.28125 -24.207031 87.4375 -16.53125 82.15625 -11.4375 C 59.070312 10.851562 35.695312 22 12.03125 22 C 4.988281 22 -0.828125 20.53125 -5.421875 17.59375 C -10.023438 14.664062 -12.328125 9.78125 -12.328125 2.9375 C -12.328125 -1.363281 -11.347656 -6.007812 -9.390625 -11 C -7.429688 -15.988281 -4.984375 -20.734375 -2.046875 -25.234375 C 0.878906 -29.734375 3.8125 -33.445312 6.75 -36.375 C 13.207031 -42.832031 18.585938 -46.0625 22.890625 -46.0625 C 23.671875 -46.0625 24.0625 -45.863281 24.0625 -45.46875 C 24.0625 -44.5 22.59375 -42.835938 19.65625 -40.484375 C 12.8125 -35.003906 7.140625 -28.695312 2.640625 -21.5625 C -1.859375 -14.425781 -4.109375 -7.921875 -4.109375 -2.046875 C -4.109375 8.898438 3.617188 14.082031 19.078125 13.5 C 44.304688 12.519531 79.316406 -17.992188 124.109375 -78.046875 C 126.648438 -81.367188 128.800781 -83.710938 130.5625 -85.078125 L 125.859375 -86.84375 C 123.316406 -85.863281 121.265625 -85.375 119.703125 -85.375 C 115.597656 -85.375 113.546875 -87.035156 113.546875 -90.359375 C 113.546875 -94.859375 116.578125 -97.796875 122.640625 -99.171875 C 126.359375 -100.148438 131.148438 -98.484375 137.015625 -94.171875 C 144.640625 -102.785156 152.019531 -111.003906 159.15625 -118.828125 C 166.300781 -126.648438 172.804688 -133.050781 178.671875 -138.03125 C 184.535156 -143.019531 189.226562 -145.515625 192.75 -145.515625 C 197.445312 -145.515625 199.796875 -143.363281 199.796875 -139.0625 C 199.796875 -137.300781 199.351562 -135.492188 198.46875 -133.640625 C 197.59375 -131.785156 196.566406 -130.859375 195.390625 -130.859375 C 194.222656 -130.660156 193.640625 -131.242188 193.640625 -132.609375 C 193.640625 -133.585938 194.222656 -134.765625 195.390625 -136.140625 L 195.390625 -137.3125 C 195.390625 -138.476562 195 -139.359375 194.21875 -139.953125 C 189.132812 -143.273438 173.488281 -126.742188 147.28125 -90.359375 C 149.4375 -90.171875 151.734375 -90.023438 154.171875 -89.921875 C 156.617188 -89.828125 159.210938 -89.78125 161.953125 -89.78125 C 207.328125 -89.78125 235.6875 -101.515625 247.03125 -124.984375 C 249.382812 -130.066406 250.5625 -134.757812 250.5625 -139.0625 C 250.5625 -147.664062 246.550781 -155.195312 238.53125 -161.65625 C 231.289062 -167.519531 221.753906 -171.476562 209.921875 -173.53125 C 198.085938 -175.59375 186.300781 -176.625 174.5625 -176.625 C 148.550781 -176.625 120.875 -169.484375 91.53125 -155.203125 C 55.9375 -137.796875 38.140625 -117.359375 38.140625 -93.890625 C 38.140625 -86.253906 43.128906 -82.4375 53.109375 -82.4375 C 62.296875 -82.4375 72.660156 -86.15625 84.203125 -93.59375 C 94.179688 -100.238281 101.023438 -106.984375 104.734375 -113.828125 C 106.109375 -116.378906 107.378906 -117.65625 108.546875 -117.65625 C 109.921875 -117.65625 110.316406 -116.867188 109.734375 -115.296875 C 106.015625 -104.347656 97.703125 -94.960938 84.796875 -87.140625 C 72.273438 -79.503906 59.363281 -75.6875 46.0625 -75.6875 C 30.21875 -75.6875 22.882812 -80.773438 24.0625 -90.953125 C 26.988281 -116.578125 42.734375 -138.382812 71.296875 -156.375 C 99.648438 -174.175781 133.878906 -183.078125 173.984375 -183.078125 C 189.234375 -183.078125 204.046875 -181.707031 218.421875 -178.96875 C 232.804688 -176.226562 244.492188 -171.144531 253.484375 -163.71875 C 262.878906 -155.882812 267.578125 -146.691406 267.578125 -136.140625 C 267.578125 -131.640625 266.5 -126.75 264.34375 -121.46875 C 261.019531 -113.832031 255.929688 -107.328125 249.078125 -101.953125 C 242.234375 -96.578125 234.3125 -92.222656 225.3125 -88.890625 C 216.320312 -85.566406 206.835938 -83.125 196.859375 -81.5625 C 186.890625 -80 177.207031 -79.21875 167.8125 -79.21875 C 162.726562 -79.21875 157.890625 -79.410156 153.296875 -79.796875 C 148.703125 -80.191406 144.445312 -80.78125 140.53125 -81.5625 C 141.707031 -77.84375 143.757812 -71.09375 146.6875 -61.3125 C 149.625 -51.539062 153.34375 -38.828125 157.84375 -23.171875 C 159.207031 -18.867188 161.113281 -14.175781 163.5625 -9.09375 C 166.007812 -4.007812 168.796875 0.78125 171.921875 5.28125 C 175.054688 9.78125 178.429688 13.492188 182.046875 16.421875 C 185.660156 19.359375 189.328125 20.828125 193.046875 20.828125 C 201.265625 20.828125 208.113281 12.515625 213.59375 -4.109375 C 214.570312 -8.015625 215.644531 -9.96875 216.8125 -9.96875 C 217.789062 -9.96875 218.671875 -8.113281 219.453125 -4.40625 C 219.648438 -3.8125 219.75 -3.023438 219.75 -2.046875 C 219.75 3.035156 217.007812 9.289062 211.53125 16.71875 C 204.289062 27.476562 196.175781 32.859375 187.1875 32.859375 Z M 187.1875 32.859375 "/></g></g></g><g fill="#602e17" fill-opacity="1"><g transform="translate(236.190733, 242.016923)"><g><path d="M 14.96875 3.8125 C 8.707031 3.8125 3.035156 1.804688 -2.046875 -2.203125 C -7.140625 -6.210938 -9.6875 -11.539062 -9.6875 -18.1875 C -9.6875 -32.070312 -1.175781 -47.914062 15.84375 -65.71875 C 33.25 -83.71875 48.796875 -92.71875 62.484375 -92.71875 C 66.984375 -92.71875 70.648438 -91.492188 73.484375 -89.046875 C 76.328125 -86.597656 77.75 -83.613281 77.75 -80.09375 C 77.75 -69.144531 69.046875 -58.390625 51.640625 -47.828125 C 36.179688 -38.429688 23.171875 -33.734375 12.609375 -33.734375 C 11.046875 -33.734375 9.679688 -33.929688 8.515625 -34.328125 C 5.578125 -29.046875 4.109375 -23.472656 4.109375 -17.609375 C 4.109375 -7.429688 8.898438 -2.34375 18.484375 -2.34375 C 28.265625 -2.34375 40.878906 -8.894531 56.328125 -22 C 68.265625 -31.582031 78.4375 -41.753906 86.84375 -52.515625 C 88.601562 -54.859375 90.164062 -56.03125 91.53125 -56.03125 C 92.707031 -56.03125 93.296875 -55.445312 93.296875 -54.28125 C 93.296875 -53.101562 92.515625 -51.441406 90.953125 -49.296875 C 85.472656 -42.054688 79.601562 -35.40625 73.34375 -29.34375 C 67.082031 -23.28125 60.335938 -17.703125 53.109375 -12.609375 C 38.046875 -1.660156 25.332031 3.8125 14.96875 3.8125 Z M 16.71875 -40.1875 C 24.15625 -40.1875 33.835938 -43.90625 45.765625 -51.34375 C 49.679688 -54.082031 53.546875 -57.160156 57.359375 -60.578125 C 61.171875 -64.003906 64.296875 -67.476562 66.734375 -71 C 69.179688 -74.519531 70.40625 -77.648438 70.40625 -80.390625 C 70.40625 -82.929688 68.351562 -84.203125 64.25 -84.203125 C 58.382812 -84.203125 50.171875 -79.800781 39.609375 -71 C 34.523438 -66.695312 29.632812 -62.003906 24.9375 -56.921875 C 20.238281 -51.835938 16.226562 -46.457031 12.90625 -40.78125 C 14.082031 -40.382812 15.351562 -40.1875 16.71875 -40.1875 Z M 16.71875 -40.1875 "/></g></g></g><g fill="#602e17" fill-opacity="1"><g transform="translate(311.593503, 242.016923)"><g><path d="M 9.6875 0.875 C 8.507812 0.875 6.84375 0.335938 4.6875 -0.734375 C 2.539062 -1.804688 0.585938 -3.078125 -1.171875 -4.546875 C -2.929688 -6.015625 -3.910156 -7.335938 -4.109375 -8.515625 C -4.304688 -10.078125 -3.28125 -14.523438 -1.03125 -21.859375 C 1.21875 -29.191406 4.789062 -39.21875 9.6875 -51.9375 C 14.570312 -64.84375 18.675781 -74.816406 22 -81.859375 C 25.320312 -88.898438 27.769531 -93.101562 29.34375 -94.46875 C 30.125 -95.25 31.195312 -95.640625 32.5625 -95.640625 C 34.71875 -95.640625 36.769531 -94.710938 38.71875 -92.859375 C 40.675781 -91.003906 41.753906 -88.800781 41.953125 -86.25 C 41.953125 -86.0625 37.0625 -74.523438 27.28125 -51.640625 C 17.695312 -29.535156 13.203125 -16.332031 13.796875 -12.03125 C 22.398438 -14.769531 36.773438 -24.453125 56.921875 -41.078125 C 69.046875 -51.242188 77.796875 -60.484375 83.171875 -68.796875 C 88.554688 -77.109375 91.25 -84.59375 91.25 -91.25 C 91.25 -95.15625 90.316406 -98.722656 88.453125 -101.953125 C 86.597656 -105.179688 83.222656 -107.867188 78.328125 -110.015625 C 76.960938 -110.609375 76.28125 -111.488281 76.28125 -112.65625 C 76.28125 -114.414062 77.359375 -115.296875 79.515625 -115.296875 C 85.179688 -115.296875 90.117188 -113.4375 94.328125 -109.71875 C 98.535156 -106.007812 100.640625 -100.4375 100.640625 -93 C 100.640625 -85.175781 97.3125 -76.328125 90.65625 -66.453125 C 84.007812 -56.578125 74.523438 -46.0625 62.203125 -34.90625 C 51.441406 -25.320312 41.707031 -17.5 33 -11.4375 C 24.300781 -5.375 16.53125 -1.269531 9.6875 0.875 Z M 9.6875 0.875 "/></g></g></g><g fill="#602e17" fill-opacity="1"><g transform="translate(399.905685, 242.016923)"><g><path d="M 14.96875 3.8125 C 8.707031 3.8125 3.035156 1.804688 -2.046875 -2.203125 C -7.140625 -6.210938 -9.6875 -11.539062 -9.6875 -18.1875 C -9.6875 -32.070312 -1.175781 -47.914062 15.84375 -65.71875 C 33.25 -83.71875 48.796875 -92.71875 62.484375 -92.71875 C 66.984375 -92.71875 70.648438 -91.492188 73.484375 -89.046875 C 76.328125 -86.597656 77.75 -83.613281 77.75 -80.09375 C 77.75 -69.144531 69.046875 -58.390625 51.640625 -47.828125 C 36.179688 -38.429688 23.171875 -33.734375 12.609375 -33.734375 C 11.046875 -33.734375 9.679688 -33.929688 8.515625 -34.328125 C 5.578125 -29.046875 4.109375 -23.472656 4.109375 -17.609375 C 4.109375 -7.429688 8.898438 -2.34375 18.484375 -2.34375 C 28.265625 -2.34375 40.878906 -8.894531 56.328125 -22 C 68.265625 -31.582031 78.4375 -41.753906 86.84375 -52.515625 C 88.601562 -54.859375 90.164062 -56.03125 91.53125 -56.03125 C 92.707031 -56.03125 93.296875 -55.445312 93.296875 -54.28125 C 93.296875 -53.101562 92.515625 -51.441406 90.953125 -49.296875 C 85.472656 -42.054688 79.601562 -35.40625 73.34375 -29.34375 C 67.082031 -23.28125 60.335938 -17.703125 53.109375 -12.609375 C 38.046875 -1.660156 25.332031 3.8125 14.96875 3.8125 Z M 16.71875 -40.1875 C 24.15625 -40.1875 33.835938 -43.90625 45.765625 -51.34375 C 49.679688 -54.082031 53.546875 -57.160156 57.359375 -60.578125 C 61.171875 -64.003906 64.296875 -67.476562 66.734375 -71 C 69.179688 -74.519531 70.40625 -77.648438 70.40625 -80.390625 C 70.40625 -82.929688 68.351562 -84.203125 64.25 -84.203125 C 58.382812 -84.203125 50.171875 -79.800781 39.609375 -71 C 34.523438 -66.695312 29.632812 -62.003906 24.9375 -56.921875 C 20.238281 -51.835938 16.226562 -46.457031 12.90625 -40.78125 C 14.082031 -40.382812 15.351562 -40.1875 16.71875 -40.1875 Z M 16.71875 -40.1875 "/></g></g></g><g fill="#602e17" fill-opacity="1"><g transform="translate(475.308411, 242.016923)"><g/></g></g><g fill="#602e17" fill-opacity="1"><g transform="translate(533.400859, 242.016923)"><g><path d="M 22.296875 0.59375 C 16.628906 0.59375 11.347656 -0.820312 6.453125 -3.65625 C 1.566406 -6.5 -0.875 -11.242188 -0.875 -17.890625 C -0.875 -27.085938 2.398438 -38.039062 8.953125 -50.75 C 15.503906 -63.46875 22.984375 -76.671875 31.390625 -90.359375 C 54.273438 -127.523438 70.507812 -146.109375 80.09375 -146.109375 C 82.050781 -146.109375 84.054688 -145.375 86.109375 -143.90625 C 88.160156 -142.4375 89.285156 -140.820312 89.484375 -139.0625 L 68.953125 -111.484375 C 60.929688 -100.734375 53.691406 -90.804688 47.234375 -81.703125 C 40.773438 -72.609375 35.203125 -64.445312 30.515625 -57.21875 C 28.160156 -53.5 25.515625 -49.289062 22.578125 -44.59375 C 19.648438 -39.894531 17.0625 -35.050781 14.8125 -30.0625 C 12.5625 -25.082031 11.4375 -20.050781 11.4375 -14.96875 C 11.4375 -12.613281 12.117188 -10.507812 13.484375 -8.65625 C 14.859375 -6.800781 17.304688 -5.875 20.828125 -5.875 C 27.085938 -5.875 35.300781 -9.242188 45.46875 -15.984375 C 55.644531 -22.734375 65.71875 -32.078125 75.6875 -44.015625 C 76.664062 -45.179688 77.742188 -46.253906 78.921875 -47.234375 C 80.097656 -48.210938 81.078125 -48.703125 81.859375 -48.703125 C 82.835938 -48.703125 83.328125 -48.113281 83.328125 -46.9375 C 83.328125 -46.351562 82.691406 -45.226562 81.421875 -43.5625 C 80.148438 -41.90625 79.117188 -40.585938 78.328125 -39.609375 L 71.296875 -31.6875 C 67.378906 -27.382812 62.734375 -22.6875 57.359375 -17.59375 C 51.984375 -12.507812 46.3125 -8.207031 40.34375 -4.6875 C 34.375 -1.164062 28.359375 0.59375 22.296875 0.59375 Z M 22.296875 0.59375 "/></g></g></g><g fill="#602e17" fill-opacity="1"><g transform="translate(604.696076, 242.016923)"><g><path d="M 64.84375 -100.921875 C 61.519531 -100.921875 58.632812 -101.992188 56.1875 -104.140625 C 53.738281 -106.296875 52.515625 -108.742188 52.515625 -111.484375 C 52.515625 -116.960938 56.234375 -119.703125 63.671875 -119.703125 C 66.398438 -119.703125 69.132812 -118.769531 71.875 -116.90625 C 74.613281 -115.050781 75.984375 -112.753906 75.984375 -110.015625 C 75.984375 -107.671875 74.710938 -105.566406 72.171875 -103.703125 C 69.628906 -101.847656 67.1875 -100.921875 64.84375 -100.921875 Z M 10.5625 3.234375 C 6.257812 3.234375 2.691406 1.816406 -0.140625 -1.015625 C -2.984375 -3.859375 -4.40625 -8.898438 -4.40625 -16.140625 C -4.40625 -20.242188 -3.472656 -24.984375 -1.609375 -30.359375 C 0.242188 -35.742188 2.585938 -41.171875 5.421875 -46.640625 C 8.265625 -52.117188 11.054688 -57.007812 13.796875 -61.3125 C 24.742188 -79.113281 33.738281 -88.113281 40.78125 -88.3125 C 42.539062 -88.3125 44.691406 -87.578125 47.234375 -86.109375 C 49.773438 -84.640625 51.046875 -83.023438 51.046875 -81.265625 C 51.046875 -81.265625 43.613281 -71.679688 28.75 -52.515625 C 14.082031 -33.546875 6.75 -20.050781 6.75 -12.03125 C 6.75 -5.769531 9.191406 -2.640625 14.078125 -2.640625 C 17.210938 -2.640625 21.269531 -3.957031 26.25 -6.59375 C 31.238281 -9.238281 36.472656 -12.613281 41.953125 -16.71875 C 47.429688 -20.832031 52.660156 -25.234375 57.640625 -29.921875 C 62.628906 -34.617188 66.691406 -38.921875 69.828125 -42.828125 C 71.785156 -45.378906 73.492188 -47.140625 74.953125 -48.109375 C 76.421875 -49.085938 77.351562 -49.578125 77.75 -49.578125 C 78.53125 -49.578125 78.921875 -48.992188 78.921875 -47.828125 C 78.921875 -46.847656 77.796875 -44.890625 75.546875 -41.953125 C 73.296875 -39.015625 70.21875 -35.59375 66.3125 -31.6875 C 61.613281 -26.988281 56.425781 -21.898438 50.75 -16.421875 C 45.082031 -10.953125 38.921875 -6.304688 32.265625 -2.484375 C 25.617188 1.328125 18.382812 3.234375 10.5625 3.234375 Z M 10.5625 3.234375 "/></g></g></g><g fill="#602e17" fill-opacity="1"><g transform="translate(671.003541, 242.016923)"><g><path d="M 9.6875 0.875 C 8.507812 0.875 6.84375 0.335938 4.6875 -0.734375 C 2.539062 -1.804688 0.585938 -3.078125 -1.171875 -4.546875 C -2.929688 -6.015625 -3.910156 -7.335938 -4.109375 -8.515625 C -4.304688 -10.078125 -3.28125 -14.523438 -1.03125 -21.859375 C 1.21875 -29.191406 4.789062 -39.21875 9.6875 -51.9375 C 14.570312 -64.84375 18.675781 -74.816406 22 -81.859375 C 25.320312 -88.898438 27.769531 -93.101562 29.34375 -94.46875 C 30.125 -95.25 31.195312 -95.640625 32.5625 -95.640625 C 34.71875 -95.640625 36.769531 -94.710938 38.71875 -92.859375 C 40.675781 -91.003906 41.753906 -88.800781 41.953125 -86.25 C 41.953125 -86.0625 37.0625 -74.523438 27.28125 -51.640625 C 17.695312 -29.535156 13.203125 -16.332031 13.796875 -12.03125 C 22.398438 -14.769531 36.773438 -24.453125 56.921875 -41.078125 C 69.046875 -51.242188 77.796875 -60.484375 83.171875 -68.796875 C 88.554688 -77.109375 91.25 -84.59375 91.25 -91.25 C 91.25 -95.15625 90.316406 -98.722656 88.453125 -101.953125 C 86.597656 -105.179688 83.222656 -107.867188 78.328125 -110.015625 C 76.960938 -110.609375 76.28125 -111.488281 76.28125 -112.65625 C 76.28125 -114.414062 77.359375 -115.296875 79.515625 -115.296875 C 85.179688 -115.296875 90.117188 -113.4375 94.328125 -109.71875 C 98.535156 -106.007812 100.640625 -100.4375 100.640625 -93 C 100.640625 -85.175781 97.3125 -76.328125 90.65625 -66.453125 C 84.007812 -56.578125 74.523438 -46.0625 62.203125 -34.90625 C 51.441406 -25.320312 41.707031 -17.5 33 -11.4375 C 24.300781 -5.375 16.53125 -1.269531 9.6875 0.875 Z M 9.6875 0.875 "/></g></g></g><g fill="#602e17" fill-opacity="1"><g transform="translate(759.315724, 242.016923)"><g><path d="M 64.84375 -100.921875 C 61.519531 -100.921875 58.632812 -101.992188 56.1875 -104.140625 C 53.738281 -106.296875 52.515625 -108.742188 52.515625 -111.484375 C 52.515625 -116.960938 56.234375 -119.703125 63.671875 -119.703125 C 66.398438 -119.703125 69.132812 -118.769531 71.875 -116.90625 C 74.613281 -115.050781 75.984375 -112.753906 75.984375 -110.015625 C 75.984375 -107.671875 74.710938 -105.566406 72.171875 -103.703125 C 69.628906 -101.847656 67.1875 -100.921875 64.84375 -100.921875 Z M 10.5625 3.234375 C 6.257812 3.234375 2.691406 1.816406 -0.140625 -1.015625 C -2.984375 -3.859375 -4.40625 -8.898438 -4.40625 -16.140625 C -4.40625 -20.242188 -3.472656 -24.984375 -1.609375 -30.359375 C 0.242188 -35.742188 2.585938 -41.171875 5.421875 -46.640625 C 8.265625 -52.117188 11.054688 -57.007812 13.796875 -61.3125 C 24.742188 -79.113281 33.738281 -88.113281 40.78125 -88.3125 C 42.539062 -88.3125 44.691406 -87.578125 47.234375 -86.109375 C 49.773438 -84.640625 51.046875 -83.023438 51.046875 -81.265625 C 51.046875 -81.265625 43.613281 -71.679688 28.75 -52.515625 C 14.082031 -33.546875 6.75 -20.050781 6.75 -12.03125 C 6.75 -5.769531 9.191406 -2.640625 14.078125 -2.640625 C 17.210938 -2.640625 21.269531 -3.957031 26.25 -6.59375 C 31.238281 -9.238281 36.472656 -12.613281 41.953125 -16.71875 C 47.429688 -20.832031 52.660156 -25.234375 57.640625 -29.921875 C 62.628906 -34.617188 66.691406 -38.921875 69.828125 -42.828125 C 71.785156 -45.378906 73.492188 -47.140625 74.953125 -48.109375 C 76.421875 -49.085938 77.351562 -49.578125 77.75 -49.578125 C 78.53125 -49.578125 78.921875 -48.992188 78.921875 -47.828125 C 78.921875 -46.847656 77.796875 -44.890625 75.546875 -41.953125 C 73.296875 -39.015625 70.21875 -35.59375 66.3125 -31.6875 C 61.613281 -26.988281 56.425781 -21.898438 50.75 -16.421875 C 45.082031 -10.953125 38.921875 -6.304688 32.265625 -2.484375 C 25.617188 1.328125 18.382812 3.234375 10.5625 3.234375 Z M 10.5625 3.234375 "/></g></g></g><g fill="#602e17" fill-opacity="1"><g transform="translate(825.623189, 242.016923)"><g><path d="M 74.8125 0.59375 C 69.53125 0.59375 65.8125 -0.921875 63.65625 -3.953125 C 61.507812 -6.992188 60.4375 -10.757812 60.4375 -15.25 C 60.4375 -26.59375 64.347656 -38.722656 72.171875 -51.640625 L 90.953125 -82.15625 C 77.648438 -72.375 64.445312 -60.144531 51.34375 -45.46875 C 47.820312 -41.5625 43.859375 -36.96875 39.453125 -31.6875 C 35.054688 -26.40625 30.21875 -20.34375 24.9375 -13.5 C 17.894531 -4.300781 13.691406 0.296875 12.328125 0.296875 C 9.585938 0.296875 7.335938 -0.925781 5.578125 -3.375 C 3.816406 -5.820312 2.9375 -8.019531 2.9375 -9.96875 C 2.9375 -11.539062 3.425781 -14.425781 4.40625 -18.625 C 5.382812 -22.832031 6.554688 -26.5 7.921875 -29.625 C 9.285156 -32.957031 10.703125 -36.234375 12.171875 -39.453125 C 13.640625 -42.679688 15.0625 -45.863281 16.4375 -49 L -1.171875 -30.515625 C -1.566406 -30.117188 -2.738281 -28.941406 -4.6875 -26.984375 C -6.644531 -25.035156 -8.210938 -24.0625 -9.390625 -24.0625 C -10.367188 -24.0625 -10.859375 -24.742188 -10.859375 -26.109375 C -10.859375 -26.503906 -10.707031 -27.039062 -10.40625 -27.71875 C -10.113281 -28.40625 -9.484375 -29.238281 -8.515625 -30.21875 C -5.578125 -33.15625 -2.546875 -36.285156 0.578125 -39.609375 C 3.710938 -42.929688 6.941406 -46.742188 10.265625 -51.046875 C 12.023438 -53.203125 14.664062 -56.476562 18.1875 -60.875 C 21.707031 -65.28125 25.570312 -70.023438 29.78125 -75.109375 C 33.988281 -80.191406 37.945312 -84.882812 41.65625 -89.1875 C 42.632812 -90.5625 43.710938 -91.492188 44.890625 -91.984375 C 46.066406 -92.472656 46.847656 -92.71875 47.234375 -92.71875 C 52.515625 -92.71875 55.15625 -90.660156 55.15625 -86.546875 C 55.15625 -85.378906 54.863281 -84.207031 54.28125 -83.03125 C 36.675781 -58.78125 26.113281 -40.296875 22.59375 -27.578125 C 45.28125 -50.265625 63.519531 -67.328125 77.3125 -78.765625 C 91.101562 -90.210938 100.929688 -95.9375 106.796875 -95.9375 C 109.921875 -95.9375 112.3125 -95.445312 113.96875 -94.46875 C 115.632812 -93.488281 116.46875 -91.628906 116.46875 -88.890625 C 116.46875 -87.921875 116.375 -87.140625 116.1875 -86.546875 C 115.59375 -85.179688 111.582031 -79.707031 104.15625 -70.125 C 99.65625 -64.644531 95.691406 -59.65625 92.265625 -55.15625 C 88.847656 -50.65625 86.0625 -46.742188 83.90625 -43.421875 C 80.382812 -37.941406 77.742188 -32.804688 75.984375 -28.015625 C 74.222656 -23.222656 73.34375 -19.164062 73.34375 -15.84375 C 73.34375 -14.476562 73.535156 -12.816406 73.921875 -10.859375 C 74.316406 -8.898438 75.492188 -7.921875 77.453125 -7.921875 C 81.953125 -7.921875 88.992188 -11.832031 98.578125 -19.65625 C 103.078125 -23.570312 107.28125 -27.53125 111.1875 -31.53125 C 115.101562 -35.539062 118.820312 -39.503906 122.34375 -43.421875 C 123.125 -44.203125 124.394531 -45.71875 126.15625 -47.96875 C 127.914062 -50.21875 128.992188 -51.34375 129.390625 -51.34375 C 130.171875 -51.34375 130.5625 -50.5625 130.5625 -49 C 130.5625 -48.21875 130.117188 -46.894531 129.234375 -45.03125 C 128.359375 -43.175781 127.429688 -41.757812 126.453125 -40.78125 C 124.296875 -38.238281 121.113281 -34.71875 116.90625 -30.21875 C 112.707031 -25.71875 108.015625 -21.117188 102.828125 -16.421875 C 97.648438 -11.734375 92.613281 -7.722656 87.71875 -4.390625 C 82.832031 -1.066406 78.53125 0.59375 74.8125 0.59375 Z M 74.8125 0.59375 "/></g></g></g><g fill="#602e17" fill-opacity="1"><g transform="translate(943.861795, 242.016923)"><g><path d="M -3.234375 60.140625 C -9.097656 60.140625 -14.082031 57.691406 -18.1875 52.796875 C -22.289062 47.910156 -24.441406 42.632812 -24.640625 36.96875 C -24.054688 34.625 -23.175781 33.453125 -22 33.453125 C -20.832031 33.453125 -20.148438 34.96875 -19.953125 38 C -19.753906 41.03125 -18.1875 44.007812 -15.25 46.9375 C -12.320312 49.875 -9.488281 51.34375 -6.75 51.34375 C 4.59375 51.34375 16.523438 44.007812 29.046875 29.34375 C 33.546875 24.0625 38.191406 17.847656 42.984375 10.703125 C 47.773438 3.566406 52.421875 -4.5 56.921875 -13.5 L 71.59375 -42.546875 L 49.578125 -20.25 C 42.734375 -13.394531 36.816406 -8.304688 31.828125 -4.984375 C 26.835938 -1.660156 22.976562 0 20.25 0 C 15.550781 0 10.851562 -1.707031 6.15625 -5.125 C 1.46875 -8.550781 -1.171875 -12.515625 -1.765625 -17.015625 C -3.710938 -32.078125 5.773438 -49.972656 26.703125 -70.703125 C 47.628906 -91.242188 66.304688 -101.515625 82.734375 -101.515625 C 87.234375 -101.515625 90.753906 -100.4375 93.296875 -98.28125 C 94.671875 -97.113281 95.695312 -95.351562 96.375 -93 C 97.0625 -90.65625 97.601562 -89.484375 98 -89.484375 C 98.78125 -89.484375 99.460938 -89.628906 100.046875 -89.921875 C 100.628906 -90.210938 101.3125 -90.359375 102.09375 -90.359375 C 104.632812 -90.359375 106.738281 -89.476562 108.40625 -87.71875 C 110.070312 -85.957031 110.609375 -84.195312 110.015625 -82.4375 C 109.828125 -80.675781 106.992188 -75.394531 101.515625 -66.59375 C 97.992188 -60.726562 93.984375 -53.640625 89.484375 -45.328125 C 84.984375 -37.015625 80.238281 -28.40625 75.25 -19.5 C 70.257812 -10.601562 65.414062 -2.296875 60.71875 5.421875 C 56.03125 13.148438 51.828125 19.457031 48.109375 24.34375 C 30.117188 48.207031 13.003906 60.140625 -3.234375 60.140625 Z M 17.609375 -6.75 C 28.953125 -6.75 44.398438 -19.171875 63.953125 -44.015625 L 95.0625 -86.84375 C 93.882812 -89.582031 91.4375 -90.953125 87.71875 -90.953125 C 75.59375 -90.953125 59.359375 -81.367188 39.015625 -62.203125 C 17.890625 -42.242188 8.40625 -26.109375 10.5625 -13.796875 C 11.539062 -9.097656 13.890625 -6.75 17.609375 -6.75 Z M 17.609375 -6.75 "/></g></g></g></g></g></svg>